<?xml version="1.0" encoding="UTF-8"?>
<svg id="Layer_1" xmlns="http://www.w3.org/2000/svg" version="1.1" viewBox="0 0 850.39 850.39">
  <!-- Generator: Adobe Illustrator 29.3.0, SVG Export Plug-In . SVG Version: 2.1.0 Build 146)  -->
  <defs>
    <style>
      .st0 {
        fill: none;
      }

      .st0, .st1 {
        stroke: #231f20;
        stroke-miterlimit: 10;
      }

      .st1 {
        fill: #fff;
      }
    </style>
  </defs>
  <ellipse class="st0" cx="417.39" cy="583.26" rx="22.24" ry="15.41"/>
  <path class="st0" d="M263.16,655.11c0,22.03,66.47,39.85,148.62,39.85"/>
  <path class="st0" d="M569.74,655.11c0,22.03-70.65,39.85-157.95,39.85"/>
  <path class="st0" d="M338.55,666.25h0"/>
  <circle class="st1" cx="417.39" cy="339.89" r="216.56"/>
  <ellipse class="st1" cx="415.92" cy="347.13" rx="186.13" ry="209.32"/>
  <circle class="st1" cx="415.92" cy="347.13" r="101.78"/>
  <circle class="st1" cx="415.92" cy="347.13" r="89.74"/>
  <path class="st0" d="M478.15,549.19c.94,20.2,22.87,42.05,35.25,56.19,15.77,18.02,34.31,39.26,56.35,49.73"/>
  <path class="st0" d="M359.99,549.19c-18.42,47.08-57.03,82.19-98.42,106.58"/>
  <path class="st0" d="M307.75,244.83h0"/>
  <path class="st0" d="M496.04,287.12c43.24,0,78.24-22.38,78.24-50.03"/>
  <path class="st0" d="M333.97,287.12c-40.62,0-73.5-25.8-73.5-57.68"/>
  <path class="st0" d="M479.08,429.22c9.83,31.82,63.1,37.15,89.84,37.15"/>
  <path class="st0" d="M348.07,422.99c0,21.73-39.18,39.32-87.6,39.32"/>
  <ellipse class="st0" cx="417.39" cy="583.26" rx="15.29" ry="10.6"/>
</svg>